<mxfile host="app.diagrams.net" agent="Mozilla/5.0 (Macintosh; Intel Mac OS X 10_15_7) AppleWebKit/537.36 (KHTML, like Gecko) Chrome/129.0.0.0 Safari/537.36" version="24.8.0">
  <diagram id="C5RBs43oDa-KdzZeNtuy" name="Page-1">
    <mxGraphModel dx="1781" dy="605" grid="1" gridSize="10" guides="1" tooltips="1" connect="1" arrows="1" fold="1" page="1" pageScale="1" pageWidth="827" pageHeight="1169" background="none" math="0" shadow="0">
      <root>
        <mxCell id="WIyWlLk6GJQsqaUBKTNV-0" />
        <mxCell id="WIyWlLk6GJQsqaUBKTNV-1" parent="WIyWlLk6GJQsqaUBKTNV-0" />
        <mxCell id="Aa_82JWmDp6JhZ9m2i8k-0" value="" style="shape=loopLimit;whiteSpace=wrap;html=1;fontFamily=Times New Roman;fillColor=#d5e8d4;strokeColor=#82b366;size=80;" parent="WIyWlLk6GJQsqaUBKTNV-1" vertex="1">
          <mxGeometry x="-682" y="70" width="537" height="580" as="geometry" />
        </mxCell>
        <mxCell id="ckViZlqFNIWQCfP066J6-1" style="edgeStyle=orthogonalEdgeStyle;rounded=0;orthogonalLoop=1;jettySize=auto;html=1;entryX=0.5;entryY=0;entryDx=0;entryDy=0;" parent="WIyWlLk6GJQsqaUBKTNV-1" source="94BxgcNmghaYFvl587qx-0" target="94BxgcNmghaYFvl587qx-16" edge="1">
          <mxGeometry relative="1" as="geometry" />
        </mxCell>
        <mxCell id="94BxgcNmghaYFvl587qx-0" value="初始化五个反馈队列" style="rounded=1;whiteSpace=wrap;html=1;fontSize=12;glass=0;strokeWidth=1;shadow=0;fontFamily=Times New Roman;" parent="WIyWlLk6GJQsqaUBKTNV-1" vertex="1">
          <mxGeometry x="-483" y="240" width="120" height="40" as="geometry" />
        </mxCell>
        <mxCell id="ckViZlqFNIWQCfP066J6-2" style="edgeStyle=orthogonalEdgeStyle;rounded=0;orthogonalLoop=1;jettySize=auto;html=1;" parent="WIyWlLk6GJQsqaUBKTNV-1" source="94BxgcNmghaYFvl587qx-8" target="94BxgcNmghaYFvl587qx-0" edge="1">
          <mxGeometry relative="1" as="geometry" />
        </mxCell>
        <mxCell id="94BxgcNmghaYFvl587qx-8" value="开始" style="shape=parallelogram;perimeter=parallelogramPerimeter;whiteSpace=wrap;html=1;fixedSize=1;fontFamily=Times New Roman;" parent="WIyWlLk6GJQsqaUBKTNV-1" vertex="1">
          <mxGeometry x="-483" y="160" width="120" height="40" as="geometry" />
        </mxCell>
        <mxCell id="94BxgcNmghaYFvl587qx-16" value="i = 1" style="rounded=1;whiteSpace=wrap;html=1;fontSize=12;glass=0;strokeWidth=1;shadow=0;fontFamily=Times New Roman;" parent="WIyWlLk6GJQsqaUBKTNV-1" vertex="1">
          <mxGeometry x="-483" y="330" width="120" height="40" as="geometry" />
        </mxCell>
        <mxCell id="94BxgcNmghaYFvl587qx-17" value="rq[i]为空" style="rhombus;whiteSpace=wrap;html=1;fontFamily=Times New Roman;" parent="WIyWlLk6GJQsqaUBKTNV-1" vertex="1">
          <mxGeometry x="-483" y="410" width="120" height="40" as="geometry" />
        </mxCell>
        <mxCell id="94BxgcNmghaYFvl587qx-18" value="" style="rounded=0;html=1;jettySize=auto;orthogonalLoop=1;fontSize=11;endArrow=block;endFill=0;endSize=8;strokeWidth=1;shadow=0;labelBackgroundColor=none;edgeStyle=orthogonalEdgeStyle;fontFamily=Times New Roman;" parent="WIyWlLk6GJQsqaUBKTNV-1" edge="1">
          <mxGeometry relative="1" as="geometry">
            <mxPoint x="-423.34000000000003" y="370" as="sourcePoint" />
            <mxPoint x="-423.34000000000003" y="410" as="targetPoint" />
          </mxGeometry>
        </mxCell>
        <mxCell id="94BxgcNmghaYFvl587qx-20" value="" style="rounded=0;html=1;jettySize=auto;orthogonalLoop=1;fontSize=11;endArrow=block;endFill=0;endSize=8;strokeWidth=1;shadow=0;labelBackgroundColor=none;edgeStyle=orthogonalEdgeStyle;fontFamily=Times New Roman;" parent="WIyWlLk6GJQsqaUBKTNV-1" edge="1">
          <mxGeometry relative="1" as="geometry">
            <mxPoint x="-423.34000000000003" y="450" as="sourcePoint" />
            <mxPoint x="-423.34000000000003" y="490" as="targetPoint" />
          </mxGeometry>
        </mxCell>
        <mxCell id="94BxgcNmghaYFvl587qx-26" value="YES" style="edgeLabel;html=1;align=center;verticalAlign=middle;resizable=0;points=[];fontFamily=Times New Roman;" parent="94BxgcNmghaYFvl587qx-20" vertex="1" connectable="0">
          <mxGeometry x="-0.2346" y="-3" relative="1" as="geometry">
            <mxPoint as="offset" />
          </mxGeometry>
        </mxCell>
        <mxCell id="94BxgcNmghaYFvl587qx-21" value="i += 1" style="rounded=1;whiteSpace=wrap;html=1;fontSize=12;glass=0;strokeWidth=1;shadow=0;fontFamily=Times New Roman;" parent="WIyWlLk6GJQsqaUBKTNV-1" vertex="1">
          <mxGeometry x="-483" y="490" width="120" height="40" as="geometry" />
        </mxCell>
        <mxCell id="94BxgcNmghaYFvl587qx-22" value="" style="rounded=0;html=1;jettySize=auto;orthogonalLoop=1;fontSize=11;endArrow=block;endFill=0;endSize=8;strokeWidth=1;shadow=0;labelBackgroundColor=none;edgeStyle=orthogonalEdgeStyle;fontFamily=Times New Roman;" parent="WIyWlLk6GJQsqaUBKTNV-1" edge="1">
          <mxGeometry relative="1" as="geometry">
            <mxPoint x="-423.34000000000003" y="530" as="sourcePoint" />
            <mxPoint x="-423.34000000000003" y="570" as="targetPoint" />
          </mxGeometry>
        </mxCell>
        <mxCell id="94BxgcNmghaYFvl587qx-32" style="edgeStyle=orthogonalEdgeStyle;rounded=0;orthogonalLoop=1;jettySize=auto;html=1;fontFamily=Times New Roman;" parent="WIyWlLk6GJQsqaUBKTNV-1" source="94BxgcNmghaYFvl587qx-23" edge="1">
          <mxGeometry relative="1" as="geometry">
            <mxPoint x="-423" y="390" as="targetPoint" />
            <Array as="points">
              <mxPoint x="-540" y="590" />
              <mxPoint x="-540" y="390" />
            </Array>
          </mxGeometry>
        </mxCell>
        <mxCell id="94BxgcNmghaYFvl587qx-33" value="NO" style="edgeLabel;html=1;align=center;verticalAlign=middle;resizable=0;points=[];fontFamily=Times New Roman;" parent="94BxgcNmghaYFvl587qx-32" vertex="1" connectable="0">
          <mxGeometry x="-0.875" y="1" relative="1" as="geometry">
            <mxPoint as="offset" />
          </mxGeometry>
        </mxCell>
        <mxCell id="94BxgcNmghaYFvl587qx-23" value="i==6?" style="rhombus;whiteSpace=wrap;html=1;fontFamily=Times New Roman;" parent="WIyWlLk6GJQsqaUBKTNV-1" vertex="1">
          <mxGeometry x="-483" y="570" width="120" height="40" as="geometry" />
        </mxCell>
        <mxCell id="94BxgcNmghaYFvl587qx-28" value="" style="endArrow=classic;html=1;rounded=0;exitX=1;exitY=0.5;exitDx=0;exitDy=0;entryX=0;entryY=0.5;entryDx=0;entryDy=0;fontFamily=Times New Roman;" parent="WIyWlLk6GJQsqaUBKTNV-1" source="94BxgcNmghaYFvl587qx-17" edge="1">
          <mxGeometry width="50" height="50" relative="1" as="geometry">
            <mxPoint x="-303" y="440" as="sourcePoint" />
            <mxPoint x="-283" y="430" as="targetPoint" />
          </mxGeometry>
        </mxCell>
        <mxCell id="94BxgcNmghaYFvl587qx-29" value="NO" style="edgeLabel;html=1;align=center;verticalAlign=middle;resizable=0;points=[];fontFamily=Times New Roman;" parent="94BxgcNmghaYFvl587qx-28" vertex="1" connectable="0">
          <mxGeometry x="-0.2012" y="-1" relative="1" as="geometry">
            <mxPoint as="offset" />
          </mxGeometry>
        </mxCell>
        <mxCell id="94BxgcNmghaYFvl587qx-34" value="" style="endArrow=classic;html=1;rounded=0;exitX=1;exitY=0.5;exitDx=0;exitDy=0;fontFamily=Times New Roman;" parent="WIyWlLk6GJQsqaUBKTNV-1" source="94BxgcNmghaYFvl587qx-23" edge="1">
          <mxGeometry width="50" height="50" relative="1" as="geometry">
            <mxPoint x="-313" y="580" as="sourcePoint" />
            <mxPoint x="-283" y="590" as="targetPoint" />
          </mxGeometry>
        </mxCell>
        <mxCell id="94BxgcNmghaYFvl587qx-36" value="YES" style="edgeLabel;html=1;align=center;verticalAlign=middle;resizable=0;points=[];fontFamily=Times New Roman;" parent="94BxgcNmghaYFvl587qx-34" vertex="1" connectable="0">
          <mxGeometry x="-0.075" y="-2" relative="1" as="geometry">
            <mxPoint y="1" as="offset" />
          </mxGeometry>
        </mxCell>
        <mxCell id="94BxgcNmghaYFvl587qx-37" value="弹出堆顶" style="shape=parallelogram;perimeter=parallelogramPerimeter;whiteSpace=wrap;html=1;fixedSize=1;fontFamily=Times New Roman;" parent="WIyWlLk6GJQsqaUBKTNV-1" vertex="1">
          <mxGeometry x="-293" y="410" width="120" height="40" as="geometry" />
        </mxCell>
        <mxCell id="94BxgcNmghaYFvl587qx-38" value="弹出Hanging" style="shape=parallelogram;perimeter=parallelogramPerimeter;whiteSpace=wrap;html=1;fixedSize=1;fontFamily=Times New Roman;" parent="WIyWlLk6GJQsqaUBKTNV-1" vertex="1">
          <mxGeometry x="-293" y="570" width="120" height="40" as="geometry" />
        </mxCell>
        <mxCell id="Aa_82JWmDp6JhZ9m2i8k-1" value="&lt;font style=&quot;font-size: 29px;&quot;&gt;就绪队列容器逻辑&lt;/font&gt;" style="text;html=1;align=center;verticalAlign=middle;whiteSpace=wrap;rounded=0;" parent="WIyWlLk6GJQsqaUBKTNV-1" vertex="1">
          <mxGeometry x="-553" y="70" width="280" height="50" as="geometry" />
        </mxCell>
      </root>
    </mxGraphModel>
  </diagram>
</mxfile>
